<svg width="160" height="160" viewBox="0 0 160 160" fill="none" xmlns="http://www.w3.org/2000/svg">
<path d="M80 15C44.1333 15 15 44.1333 15 80C15 115.867 44.1333 145 80 145C115.867 145 145 115.867 145 80C145 44.1333 115.867 15 80 15ZM80 135C72.6667 135 64.8 123.4 60.8667 105H99.1333C95.2 123.4 87.3333 135 80 135ZM59.2 95C58.6667 90.2667 58.3333 85.2667 58.3333 80C58.3333 74.7333 58.6667 69.7333 59.2 65H100.733C101.267 69.7333 101.6 74.7333 101.6 80C101.6 85.2667 101.267 90.2667 100.733 95H59.2ZM25 80C25 74.8 25.8 69.8 27.1333 65H49.1333C48.6 69.8 48.3333 74.8 48.3333 80C48.3333 85.2 48.6 90.2 49.1333 95H27.1333C25.8 90.2 25 85.2 25 80ZM80 25C87.3333 25 95.2 36.6 99.1333 55H60.8667C64.8 36.6 72.6667 25 80 25ZM110.867 65H132.867C134.2 69.8 135 74.8 135 80C135 85.2 134.2 90.2 132.867 95H110.867C111.4 90.2 111.667 85.2 111.667 80C111.667 74.8 111.4 69.8 110.867 65ZM128.933 55H109.4C107.4 44.5333 104.133 35.6 99.9333 28.8C112.533 33.7333 122.8 43.0667 128.933 55ZM60.0667 28.8C55.8667 35.6 52.6 44.5333 50.6 55H31.0667C37.2 43.0667 47.4667 33.7333 60.0667 28.8ZM31.0667 105H50.6C52.6 115.467 55.8667 124.4 60.0667 131.2C47.5333 126.267 37.2 116.933 31.0667 105ZM99.9333 131.2C104.133 124.4 107.4 115.467 109.4 105H128.933C122.8 116.933 112.533 126.267 99.9333 131.2Z" fill="white"/>
</svg>
