<svg width="160" height="160" viewBox="0 0 160 160" fill="none" xmlns="http://www.w3.org/2000/svg">
<path d="M23.9333 73.6L38.9333 56.1333C40.5333 54.2667 42.8666 53.0667 45.3333 52.9333L69.7999 51.1333L80.7333 38.4C84.6666 33.8667 89.5999 30.2 95.1333 27.9333L123.067 16.2667C128.667 13.9333 134.933 14.9333 139.533 18.9333C144.067 22.8667 146 29 144.533 34.8667L137.067 64.3333C135.6 70.1333 132.733 75.6667 128.867 80.2L117.933 92.9333L119.733 117.533C119.933 120 119.133 122.467 117.467 124.333L102.467 141.8C100.667 143.933 98.0666 145.067 95.3999 145.067C94.5999 145.067 93.8666 145 93.0666 144.8C89.5999 143.933 86.9999 141.2 86.1999 137.733L82.7333 121.6C82.6666 121.267 82.7333 120.933 82.7333 120.6C82.3999 120.6 82.0666 120.733 81.6666 120.8C80.8666 120.8 80.1333 120.867 79.3333 120.867C73.3999 120.867 67.6666 119.2 62.6666 116.067L56.8666 122.8C55.8666 123.933 54.4666 124.533 53.0666 124.533C51.9332 124.533 50.7333 124.133 49.7999 123.333C47.7333 121.533 47.4666 118.4 49.2666 116.267L55.1333 109.467C50.4666 103.933 47.9999 97.2 47.7333 90.2667C47.5333 90.2667 47.3333 90.4 47.0666 90.4C46.9333 90.4 46.7999 90.4 46.7333 90.4L30.3999 89.2667C26.8666 89 23.7999 86.8 22.3999 83.5333C20.9999 80.2 21.5999 76.5333 23.9333 73.8V73.6ZM133 26.4C131.333 24.9333 129 24.6 126.933 25.4L99.0666 37.0667L127.333 61.6667L134.733 32.3333C135.267 30.1333 134.6 27.8667 132.867 26.4H133ZM92.4666 119.333L95.6666 134.2L109.667 118.133L108.6 103.533L103.4 109.6C100.2 113.333 96.2666 116.067 91.8666 117.933C92.1333 118.333 92.3333 118.8 92.4666 119.267V119.333ZM84.3333 75.3333C86.1333 73.2667 89.3333 73 91.3999 74.8C93.4666 76.6 93.7333 79.7333 91.9333 81.8667L69.3333 108.2C72.8666 110.067 76.8666 111 80.9333 110.667C86.7333 110.267 91.9999 107.6 95.8666 103.133L109 87.8667L121.267 73.6C122 72.7333 122.667 71.8667 123.267 70.9333C122.8 70.7333 122.333 70.4667 121.933 70.1333L91.5333 43.7333C91.1999 43.4 90.9333 43.0667 90.7333 42.6667C89.9333 43.4 89.0666 44.0667 88.3333 44.8667L75.9999 59.2L62.8666 74.4667C56.1333 82.2667 55.9333 93.5333 61.7333 101.6L84.2666 75.3333H84.3333ZM47.4666 80.2C47.9333 80.2 48.3999 80.4 48.7999 80.6C49.9999 76.0667 52.0666 71.7333 55.3333 67.9333L60.6666 61.6667L46.5333 62.6L31.9333 79.0667L47.4666 80.1333V80.2Z" fill="white"/>
</svg>
